<?xml version="1.0" encoding="UTF-8"?>
<svg width="64px" height="64px" viewBox="0 0 64 64" version="1.1" xmlns="http://www.w3.org/2000/svg" xmlns:xlink="http://www.w3.org/1999/xlink">
    <title>highspeed</title>
    <g id="highspeed" stroke="none" stroke-width="1" fill="none" fill-rule="evenodd">
        <path d="M33.7033166,6.76788953 L45.9927767,26.7382621 C47.2851554,28.8383775 47.7560085,31.341953 47.3148926,33.7680907 L44.558796,48.9266218 C44.1949351,50.9278571 43.2294515,52.7705485 41.7911647,54.2088353 L36.5857864,59.4142136 C36.2107137,59.7892863 35.7020059,60 35.1715729,60 L28.8284271,60 C28.2979941,60 27.7892863,59.7892863 27.4142136,59.4142136 L22.2088353,54.2088353 C20.7705485,52.7705485 19.8050649,50.9278571 19.441204,48.9266218 L16.6851074,33.7680907 C16.2439915,31.341953 16.7148446,28.8383775 18.0072233,26.7382621 L30.2966834,6.76788953 C30.8755854,5.82717373 32.1074791,5.53386572 33.0481949,6.11276775 C33.3148357,6.27685445 33.5392299,6.50124864 33.7033166,6.76788953 Z" id="Path" fill="#000000" fill-rule="nonzero"></path>
    </g>
</svg>