<?xml version="1.0" encoding="UTF-8"?>
<svg width="64px" height="64px" viewBox="0 0 64 64" version="1.1" xmlns="http://www.w3.org/2000/svg" xmlns:xlink="http://www.w3.org/1999/xlink">
    <title>sailing</title>
    <g id="sailing" stroke="none" stroke-width="1" fill="none" fill-rule="evenodd">
        <path d="M33.4732307,7.47883165 C37.0961387,11.4245845 39.9383952,16.9316406 42,24 C45.5,36 43.5,42 42,48 C41.190918,51.2363281 40.1636314,54.0362471 38.9181402,56.3997569 C38.4001818,57.3833728 37.3802107,57.9990016 36.2685547,58 L27.7314453,58 C26.6197893,57.9990016 25.5998182,57.3833728 25.0818598,56.3997569 C23.8363686,54.0362471 22.809082,51.2363281 22,48 C20.5,42 18.5,36 22,24 C24.0627441,16.9277344 26.907003,11.4184982 30.5327765,7.47229135 L30.5327975,7.4723107 C31.2817829,6.6604642 32.5470871,6.60950517 33.3589336,7.35849051 C33.3996422,7.39604705 33.4387731,7.43527843 33.4762252,7.47608317 Z" id="Path" fill="#000000" fill-rule="nonzero"></path>
    </g>
</svg>