<?xml version="1.0" encoding="UTF-8"?>
<svg width="64px" height="64px" viewBox="0 0 64 64" version="1.1" xmlns="http://www.w3.org/2000/svg" xmlns:xlink="http://www.w3.org/1999/xlink">
    <title>tug</title>
    <g id="tug" stroke="none" stroke-width="1" fill="none" fill-rule="evenodd">
        <path d="M32.6507914,10.5578212 L42.9166486,19.3571273 C44.8938082,21.0518356 46.1319052,23.4509573 46.3676669,26.0443359 L47.7044492,40.748941 C47.8964961,42.8614569 47.4118088,44.9803186 46.3204464,46.799256 L42.5826051,53.0289915 C42.2211586,53.6314023 41.5701449,54 40.8676192,54 L23.1323808,54 C22.4298551,54 21.7788414,53.6314023 21.4173949,53.0289915 L17.6795536,46.799256 C16.5881912,44.9803186 16.1035039,42.8614569 16.2955508,40.748941 L17.6323331,26.0443359 C17.8680948,23.4509573 19.1061918,21.0518356 21.0833514,19.3571273 L31.3492086,10.5578212 C31.7236984,10.23683 32.2763016,10.23683 32.6507914,10.5578212 Z" id="Path" fill="#000000" fill-rule="nonzero"></path>
    </g>
</svg>